<svg width="50" height="50" viewBox="0 0 50 50" fill="none" xmlns="http://www.w3.org/2000/svg">
<rect x="0.5" y="0.5" width="49" height="49" rx="24.5" fill="#F97B22" fill-opacity="0.1"/>
<g clip-path="url(#clip0_959_474)">
<path d="M36.5 29C36.776 29 37 28.776 37 28.5V26.75C37 23.282 34.37 20.419 31 20.044V18.341C31 15.396 28.604 13 25.659 13C23.001 13 20.78 14.908 20.38 17.537L17.7 35.149C17.625 35.642 17.209 36 16.711 36H13.5C13.224 36 13 36.224 13 36.5C13 36.776 13.224 37 13.5 37H16.711C17.706 37 18.538 36.285 18.689 35.301L21.369 17.688C21.695 15.551 23.499 14 25.66 14C28.054 14 30.001 15.947 30.001 18.341V20H28.501C27.122 20 26.001 21.121 26.001 22.5V34.5C26.001 35.879 27.122 37 28.501 37H33.924C35.653 36.789 37.001 35.285 37.001 33.5C37.001 31.57 35.431 30 33.501 30C31.571 30 30.001 31.57 30.001 33.5C30.001 34.48 30.408 35.364 31.059 36H28.501C27.674 36 27.001 35.327 27.001 34.5V22.5C27.001 21.673 27.674 21 28.501 21H30.251C33.422 21 36.001 23.579 36.001 26.75V28.5C36.001 28.776 36.224 29 36.5 29ZM31 33.5C31 32.121 32.121 31 33.5 31C34.879 31 36 32.121 36 33.5C36 34.879 34.879 36 33.5 36C32.121 36 31 34.879 31 33.5Z" fill="#F97B22"/>
</g>
<rect x="0.5" y="0.5" width="49" height="49" rx="24.5" stroke="#F97B22"/>
<defs>
<clipPath id="clip0_959_474">
<rect width="24" height="24" fill="white" transform="translate(13 13)"/>
</clipPath>
</defs>
</svg>
