<svg width="50" height="50" viewBox="0 0 50 50" fill="none" xmlns="http://www.w3.org/2000/svg">
<rect x="0.5" y="0.5" width="49" height="49" rx="24.5" fill="#F97B22" fill-opacity="0.1"/>
<g clip-path="url(#clip0_959_481)">
<path d="M36.808 33.197L28.741 14.557C28.221 13.281 26.762 12.662 25.482 13.186L24.556 13.564C24.198 13.71 23.885 13.932 23.635 14.213C23.197 13.487 22.401 13.001 21.493 13.001H15.5C14.122 13 13 14.121 13 15.5V34.5C13 35.879 14.122 37 15.5 37H21.493C22.871 37 23.993 35.879 23.993 34.5V18.689L31.258 35.479C31.78 36.765 33.272 37.364 34.517 36.846L35.442 36.468C36.703 35.982 37.348 34.442 36.808 33.197ZM25.505 19.666L29.209 18.156L34.579 30.567L30.875 32.078L25.505 19.666ZM14 19H17.993V31H14V19ZM18.993 19H22.993V31H18.993V19ZM22.993 15.5V18H18.993V14H21.493C22.32 14 22.993 14.673 22.993 15.5ZM15.5 14H17.993V18H14V15.5C14 14.673 14.673 14 15.5 14ZM14 34.5V32H17.993V36H15.5C14.673 36 14 35.327 14 34.5ZM21.493 36H18.993V32H22.993V34.5C22.993 35.327 22.32 36 21.493 36ZM24.934 14.489L25.86 14.111C26.611 13.801 27.502 14.162 27.819 14.943L28.812 17.237L25.108 18.747L24.111 16.443C23.799 15.677 24.168 14.801 24.934 14.489ZM35.881 34.734C35.726 35.103 35.436 35.39 35.065 35.542L34.14 35.92C33.375 36.232 32.497 35.864 32.181 35.091L31.274 32.995L34.978 31.484L35.887 33.585C36.039 33.956 36.036 34.364 35.881 34.734Z" fill="#F97B22"/>
</g>
<rect x="0.5" y="0.5" width="49" height="49" rx="24.5" stroke="#F97B22"/>
<defs>
<clipPath id="clip0_959_481">
<rect width="24" height="24" fill="white" transform="translate(13 13)"/>
</clipPath>
</defs>
</svg>
