<svg width="128" height="106" viewBox="0 0 128 106" fill="none" xmlns="http://www.w3.org/2000/svg">
<path d="M103.22 0C103.22 6.45 102.33 12.69 100.65 18.61C97.47 29.94 91.45 40.1 83.38 48.26C83.05 48.61 82.7 48.96 82.34 49.29C82.03 49.6 81.7 49.91 81.38 50.21C81.35 50.25 81.31 50.29 81.27 50.32C81.22 50.36 81.18 50.41 81.12 50.45C80.92 50.65 80.71 50.83 80.5 51.03C80.39 51.12 80.29 51.22 80.19 51.31C79.66 51.79 79.13 52.25 78.59 52.69C76.64 51.61 74.27 50.71 71.47 50.34C70.63 50.23 69.77 50.17 68.92 50.17C67.86 50.17 66.8 50.26 65.75 50.43L59.06 41.02C58.11 39.67 56.6 38.95 55.05 38.95C54.14 38.95 53.2 39.21 52.38 39.74L49 41.95L45.93 43.94C43.72 45.37 43.04 48.3 44.39 50.57L49.24 58.71C47.19 60.7 45.02 63.68 44.11 67.81C44.09 67.91 44.07 68.01 44.05 68.11C43.19 68.23 42.31 68.34 41.44 68.42C41.43 68.42 41.42 68.42 41.41 68.42C39.98 68.62 38.56 68.77 37.16 68.89L34.95 69.06V105.5H0V0H34.96V33.81C53.36 33.52 68.25 18.47 68.25 0H103.22Z" fill="#405BD8"/>
<path d="M95.6801 82.1897C92.7701 82.0597 90.5301 81.1797 89.2201 80.5497C90.1101 81.7097 92.3001 84.2197 95.8601 85.0297C98.9301 85.7297 101.63 84.8397 103.69 84.1597C104.03 84.0497 104.92 83.7097 106.01 83.2297C106.98 82.7997 107.77 82.3997 108.34 82.0997C107.36 83.7597 102.77 91.1497 94.3401 92.7197C90.2401 93.4897 86.6701 92.6097 84.8101 92.1297C79.6701 90.8197 76.1101 88.2097 74.2201 86.6097C74.6801 88.3997 75.6801 90.9297 77.8701 93.0797C79.9901 95.1697 82.3101 95.9997 84.6901 96.8397C87.1901 97.7197 89.3801 98.0897 90.9301 98.2497C89.4701 99.4197 86.7601 101.28 82.9201 102.13C78.3701 103.15 74.7301 102.21 72.6801 101.66C64.8401 99.5297 60.1401 94.1697 57.8501 91.5397C55.4101 88.7397 53.8201 86.0797 52.8301 84.1797C53.6001 84.0497 54.7101 83.8397 56.0301 83.5097C57.5501 83.1297 60.6501 82.2497 66.5101 79.2497C69.6401 77.6497 72.5701 76.1497 76.2801 73.5497C78.8901 71.7197 81.9201 69.3197 85.0501 66.2297C90.1101 69.1997 94.4701 69.7497 96.8001 69.8697C100.74 70.0497 102.5 69.0997 103.09 68.7497C105.21 67.4897 106.17 65.6397 107.05 63.9297C107.79 62.4997 108.91 59.8597 109.04 56.1797C109.94 57.3097 111.76 59.8897 112.31 63.6697C112.4 64.3297 112.84 67.5597 111.44 71.4197C110.97 72.7497 109.06 77.8097 103.7 80.5397C100.16 82.3397 96.8701 82.2297 95.6901 82.1797" fill="#405BD8"/>
<path d="M80.5509 60.4601C76.2609 63.9801 70.9509 67.8301 64.5409 71.4601C59.4709 74.3401 54.6609 76.5501 50.3509 78.2501C49.8209 77.3201 47.8809 73.5901 48.9209 68.8801C49.0609 68.2601 49.2209 67.6901 49.4309 67.1401C51.1609 62.5201 55.0809 60.3201 55.7209 59.9801C53.3509 56.0001 50.9909 52.0401 48.6209 48.0701C50.7609 46.6701 52.9109 45.2701 55.0609 43.8701C57.9409 47.9201 60.8209 51.9701 63.6909 56.0201C64.8109 55.6201 66.6409 55.1001 68.9109 55.1001C69.5209 55.1001 70.1709 55.1401 70.8309 55.2301C72.0709 55.3901 73.2009 55.6901 74.2109 56.0801C77.6609 57.3901 79.8109 59.6601 80.5309 60.4701" fill="#405BD8"/>
<path d="M127.59 81.7801C125.5 82.2001 124.6 83.1101 124.16 85.2101C124.12 85.4501 123.92 85.5601 123.73 85.5601C123.54 85.5601 123.34 85.4401 123.3 85.2101C122.87 83.1101 121.96 82.2101 119.87 81.7801C119.39 81.6801 119.39 81.0001 119.87 80.9001C121.96 80.4701 122.86 79.5701 123.3 77.4701C123.34 77.2301 123.54 77.1201 123.73 77.1201C123.92 77.1201 124.12 77.2401 124.16 77.4701C124.59 79.5601 125.5 80.4701 127.59 80.9001C128.07 81.0001 128.07 81.6801 127.59 81.7801Z" fill="#405BD8"/>
<path d="M123.98 96.0295C120.84 96.6695 119.47 98.0295 118.83 101.18C118.75 101.53 118.47 101.72 118.17 101.72C117.87 101.72 117.59 101.53 117.51 101.18C116.87 98.0395 115.51 96.6695 112.36 96.0295C111.64 95.8795 111.64 94.8595 112.36 94.7095C115.5 94.0695 116.87 92.7095 117.51 89.5595C117.59 89.2095 117.87 89.0195 118.17 89.0195C118.47 89.0195 118.75 89.2095 118.83 89.5595C119.47 92.6995 120.83 94.0695 123.98 94.7095C124.7 94.8595 124.7 95.8795 123.98 96.0295Z" fill="#405BD8"/>
<path d="M108.21 102.91C106.72 103.21 106.07 103.86 105.76 105.35C105.73 105.53 105.59 105.6 105.46 105.6C105.33 105.6 105.18 105.52 105.15 105.35C104.85 103.87 104.21 103.22 102.71 102.91C102.37 102.84 102.37 102.36 102.71 102.29C104.2 101.99 104.84 101.34 105.15 99.8498C105.19 99.6698 105.33 99.5898 105.46 99.5898C105.59 99.5898 105.74 99.6698 105.76 99.8498C106.06 101.33 106.71 101.98 108.21 102.29C108.54 102.36 108.54 102.84 108.21 102.91Z" fill="#405BD8"/>
</svg>
