<svg width="20" height="20" viewBox="0 0 20 20" fill="none" xmlns="http://www.w3.org/2000/svg">
<g clip-path="url(#clip0_233_1082)">
<path d="M4.16628 10.8333L13.4746 10.8333L9.40794 14.8999C9.08294 15.2249 9.08294 15.7583 9.40794 16.0833C9.73294 16.4083 10.2579 16.4083 10.5829 16.0833L16.0746 10.5916C16.3996 10.2666 16.3996 9.74161 16.0746 9.41661L10.5829 3.92494C10.2579 3.59994 9.73294 3.59994 9.40794 3.92494C9.08294 4.24994 9.08294 4.77494 9.40794 5.09994L13.4746 9.16661L4.16628 9.16661C3.70794 9.16661 3.33294 9.54161 3.33294 9.99994C3.33294 10.4583 3.70794 10.8333 4.16628 10.8333Z" fill="#405BD8"/>
</g>
<defs>
<clipPath id="clip0_233_1082">
<rect width="20" height="20" fill="white" transform="translate(20 20) rotate(-180)"/>
</clipPath>
</defs>
</svg>
